<svg xmlns="http://www.w3.org/2000/svg" xmlns:xlink="http://www.w3.org/1999/xlink" width="1280" zoomAndPan="magnify" viewBox="0 0 960 449.999984" height="600" preserveAspectRatio="xMidYMid meet" version="1.0"><defs><clipPath id="c252c9ae7b"><path d="M 649 55.195312 L 678 55.195312 L 678 85 L 649 85 Z M 649 55.195312 " clip-rule="nonzero"/></clipPath><clipPath id="a61576ba06"><path d="M 867.015625 75 L 897 75 L 897 104 L 867.015625 104 Z M 867.015625 75 " clip-rule="nonzero"/></clipPath><clipPath id="4651a86346"><path d="M 17.015625 218 L 47 218 L 47 247 L 17.015625 247 Z M 17.015625 218 " clip-rule="nonzero"/></clipPath><clipPath id="64bd1b38a6"><path d="M 88 122.277344 L 117 122.277344 L 117 152 L 88 152 Z M 88 122.277344 " clip-rule="nonzero"/></clipPath><clipPath id="9b9020e705"><path d="M 679 350.164062 L 708 350.164062 L 708 380 L 679 380 Z M 679 350.164062 " clip-rule="nonzero"/></clipPath><clipPath id="69a1cfa35c"><path d="M 867.015625 155 L 897 155 L 897 184.816406 L 867.015625 184.816406 Z M 867.015625 155 " clip-rule="nonzero"/></clipPath><clipPath id="63558576df"><path d="M 396.125 240.058594 L 426 240.058594 L 426 270 L 396.125 270 Z M 396.125 240.058594 " clip-rule="nonzero"/></clipPath><clipPath id="f561d22841"><path d="M 370 15 L 399 15 L 399 44.882812 L 370 44.882812 Z M 370 15 " clip-rule="nonzero"/></clipPath><clipPath id="969d681b1f"><path d="M 205.113281 15 L 235 15 L 235 44.882812 L 205.113281 44.882812 Z M 205.113281 15 " clip-rule="nonzero"/></clipPath><clipPath id="7779f185bd"><path d="M 810 413 L 840 413 L 840 442.890625 L 810 442.890625 Z M 810 413 " clip-rule="nonzero"/></clipPath><clipPath id="bc5a45ea86"><path d="M 205.113281 355 L 235 355 L 235 384.960938 L 205.113281 384.960938 Z M 205.113281 355 " clip-rule="nonzero"/></clipPath></defs><g clip-path="url(#c252c9ae7b)"><path fill="#cf7000" d="M 677.554688 68.769531 C 678.328125 76.613281 672.621094 83.617188 664.820312 84.40625 C 657.011719 85.195312 650.050781 79.449219 649.273438 71.609375 C 648.492188 63.746094 654.1875 56.761719 661.992188 55.972656 C 669.804688 55.191406 676.777344 60.910156 677.554688 68.769531 Z M 677.554688 68.769531 " fill-opacity="0.898" fill-rule="nonzero"/></g><path fill="#fcb900" d="M 670.515625 60.847656 C 670.265625 62.164062 668.257812 62.851562 666.042969 62.410156 C 663.820312 61.96875 662.242188 60.542969 662.503906 59.246094 C 662.761719 57.9375 664.765625 57.25 666.984375 57.6875 C 669.199219 58.132812 670.777344 59.554688 670.515625 60.847656 Z M 670.515625 60.847656 " fill-opacity="0.698" fill-rule="nonzero"/><path fill="#ffffff" d="M 673.277344 63.695312 C 673.160156 64.296875 672.515625 64.699219 671.84375 64.574219 C 671.171875 64.421875 670.71875 63.820312 670.84375 63.1875 C 670.976562 62.578125 671.605469 62.179688 672.292969 62.3125 C 672.960938 62.441406 673.398438 63.066406 673.277344 63.695312 Z M 673.277344 63.695312 " fill-opacity="1" fill-rule="nonzero"/><path fill="#fcb900" d="M 664.871094 79.667969 C 658.34375 80.324219 652.53125 75.855469 651.234375 69.542969 C 651.234375 69.984375 651.191406 70.421875 651.234375 70.890625 C 651.929688 77.902344 658.160156 83.035156 665.132812 82.335938 C 672.121094 81.648438 677.199219 75.363281 676.5 68.34375 C 676.460938 67.894531 676.335938 67.464844 676.238281 67.035156 C 676.210938 73.476562 671.398438 79.015625 664.871094 79.667969 Z M 664.871094 79.667969 " fill-opacity="0.2" fill-rule="nonzero"/><path fill="#bd5900" d="M 670.832031 68.714844 C 671.246094 72.882812 668.226562 76.585938 664.082031 76.996094 C 659.945312 77.414062 656.257812 74.386719 655.84375 70.21875 C 655.429688 66.054688 658.449219 62.347656 662.582031 61.925781 C 666.726562 61.515625 670.421875 64.550781 670.832031 68.714844 Z M 670.832031 68.714844 " fill-opacity="0.4" fill-rule="nonzero"/><g clip-path="url(#a61576ba06)"><path fill="#cf7000" d="M 896.148438 88.253906 C 896.925781 96.097656 891.214844 103.105469 883.414062 103.890625 C 875.605469 104.679688 868.648438 98.9375 867.867188 91.097656 C 867.089844 83.234375 872.785156 76.246094 880.585938 75.457031 C 888.398438 74.679688 895.375 80.398438 896.148438 88.253906 Z M 896.148438 88.253906 " fill-opacity="0.898" fill-rule="nonzero"/></g><path fill="#fcb900" d="M 889.109375 80.335938 C 888.859375 81.652344 886.855469 82.335938 884.636719 81.894531 C 882.414062 81.453125 880.835938 80.027344 881.097656 78.730469 C 881.355469 77.421875 883.363281 76.734375 885.578125 77.171875 C 887.796875 77.617188 889.375 79.042969 889.109375 80.335938 Z M 889.109375 80.335938 " fill-opacity="0.698" fill-rule="nonzero"/><path fill="#ffffff" d="M 891.875 83.179688 C 891.753906 83.78125 891.109375 84.183594 890.4375 84.058594 C 889.769531 83.90625 889.316406 83.304688 889.441406 82.671875 C 889.570312 82.066406 890.203125 81.664062 890.886719 81.800781 C 891.558594 81.929688 891.992188 82.550781 891.875 83.179688 Z M 891.875 83.179688 " fill-opacity="1" fill-rule="nonzero"/><path fill="#fcb900" d="M 883.46875 99.15625 C 876.9375 99.808594 871.125 95.339844 869.828125 89.027344 C 869.828125 89.46875 869.785156 89.910156 869.828125 90.375 C 870.523438 97.386719 876.757812 102.523438 883.730469 101.820312 C 890.714844 101.132812 895.792969 94.851562 895.097656 87.832031 C 895.058594 87.382812 894.933594 86.949219 894.832031 86.519531 C 894.808594 92.960938 889.992188 98.5 883.46875 99.15625 Z M 883.46875 99.15625 " fill-opacity="0.2" fill-rule="nonzero"/><path fill="#bd5900" d="M 889.425781 88.203125 C 889.839844 92.371094 886.820312 96.070312 882.675781 96.480469 C 878.539062 96.902344 874.851562 93.871094 874.4375 89.703125 C 874.023438 85.542969 877.042969 81.832031 881.175781 81.414062 C 885.320312 81.003906 889.019531 84.035156 889.425781 88.203125 Z M 889.425781 88.203125 " fill-opacity="0.4" fill-rule="nonzero"/><g clip-path="url(#4651a86346)"><path fill="#cf7000" d="M 46.148438 231.042969 C 46.925781 238.886719 41.214844 245.894531 33.414062 246.679688 C 25.605469 247.46875 18.644531 241.726562 17.867188 233.886719 C 17.085938 226.023438 22.785156 219.035156 30.585938 218.25 C 38.398438 217.46875 45.371094 223.1875 46.148438 231.042969 Z M 46.148438 231.042969 " fill-opacity="0.898" fill-rule="nonzero"/></g><path fill="#fcb900" d="M 39.109375 223.125 C 38.859375 224.441406 36.855469 225.125 34.636719 224.6875 C 32.414062 224.242188 30.835938 222.816406 31.097656 221.519531 C 31.355469 220.214844 33.359375 219.523438 35.578125 219.960938 C 37.792969 220.410156 39.375 221.832031 39.109375 223.125 Z M 39.109375 223.125 " fill-opacity="0.698" fill-rule="nonzero"/><path fill="#ffffff" d="M 41.871094 225.96875 C 41.753906 226.570312 41.109375 226.976562 40.4375 226.847656 C 39.765625 226.695312 39.3125 226.09375 39.4375 225.464844 C 39.570312 224.855469 40.203125 224.453125 40.886719 224.589844 C 41.558594 224.71875 41.992188 225.339844 41.871094 225.96875 Z M 41.871094 225.96875 " fill-opacity="1" fill-rule="nonzero"/><path fill="#fcb900" d="M 33.464844 241.945312 C 26.9375 242.597656 21.125 238.128906 19.828125 231.816406 C 19.828125 232.257812 19.785156 232.699219 19.828125 233.164062 C 20.523438 240.175781 26.757812 245.3125 33.730469 244.609375 C 40.714844 243.921875 45.792969 237.640625 45.097656 230.621094 C 45.054688 230.171875 44.929688 229.742188 44.832031 229.308594 C 44.804688 235.75 39.992188 241.289062 33.464844 241.945312 Z M 33.464844 241.945312 " fill-opacity="0.2" fill-rule="nonzero"/><path fill="#bd5900" d="M 39.425781 230.992188 C 39.839844 235.160156 36.820312 238.859375 32.675781 239.269531 C 28.539062 239.691406 24.851562 236.660156 24.4375 232.492188 C 24.023438 228.332031 27.042969 224.621094 31.175781 224.203125 C 35.320312 223.792969 39.019531 226.824219 39.425781 230.992188 Z M 39.425781 230.992188 " fill-opacity="0.4" fill-rule="nonzero"/><g clip-path="url(#64bd1b38a6)"><path fill="#cf7000" d="M 116.410156 135.851562 C 117.183594 143.695312 111.476562 150.703125 103.675781 151.488281 C 95.867188 152.277344 88.90625 146.53125 88.128906 138.691406 C 87.347656 130.828125 93.042969 123.84375 100.84375 123.054688 C 108.660156 122.273438 115.632812 127.992188 116.410156 135.851562 Z M 116.410156 135.851562 " fill-opacity="0.898" fill-rule="nonzero"/></g><path fill="#fcb900" d="M 109.371094 127.929688 C 109.121094 129.246094 107.113281 129.933594 104.898438 129.492188 C 102.675781 129.050781 101.09375 127.625 101.359375 126.328125 C 101.613281 125.019531 103.621094 124.332031 105.839844 124.769531 C 108.054688 125.214844 109.632812 126.636719 109.371094 127.929688 Z M 109.371094 127.929688 " fill-opacity="0.698" fill-rule="nonzero"/><path fill="#ffffff" d="M 112.132812 130.777344 C 112.015625 131.378906 111.371094 131.78125 110.699219 131.65625 C 110.027344 131.503906 109.574219 130.902344 109.699219 130.269531 C 109.832031 129.660156 110.460938 129.261719 111.144531 129.398438 C 111.816406 129.527344 112.25 130.148438 112.132812 130.777344 Z M 112.132812 130.777344 " fill-opacity="1" fill-rule="nonzero"/><path fill="#fcb900" d="M 103.726562 146.75 C 97.199219 147.40625 91.386719 142.9375 90.085938 136.625 C 90.085938 137.066406 90.042969 137.503906 90.085938 137.972656 C 90.785156 144.984375 97.015625 150.117188 103.988281 149.417969 C 110.976562 148.730469 116.054688 142.445312 115.355469 135.425781 C 115.316406 134.976562 115.191406 134.546875 115.09375 134.117188 C 115.066406 140.558594 110.253906 146.097656 103.726562 146.75 Z M 103.726562 146.75 " fill-opacity="0.2" fill-rule="nonzero"/><path fill="#bd5900" d="M 109.6875 135.796875 C 110.101562 139.964844 107.082031 143.667969 102.9375 144.078125 C 98.800781 144.5 95.113281 141.46875 94.699219 137.300781 C 94.285156 133.136719 97.304688 129.429688 101.4375 129.007812 C 105.582031 128.597656 109.277344 131.632812 109.6875 135.796875 Z M 109.6875 135.796875 " fill-opacity="0.4" fill-rule="nonzero"/><g clip-path="url(#9b9020e705)"><path fill="#cf7000" d="M 707.847656 363.738281 C 708.625 371.582031 702.914062 378.589844 695.113281 379.375 C 687.304688 380.164062 680.347656 374.417969 679.566406 366.578125 C 678.789062 358.714844 684.484375 351.730469 692.285156 350.941406 C 700.097656 350.160156 707.070312 355.878906 707.847656 363.738281 Z M 707.847656 363.738281 " fill-opacity="0.898" fill-rule="nonzero"/></g><path fill="#fcb900" d="M 700.808594 355.816406 C 700.558594 357.132812 698.554688 357.820312 696.335938 357.378906 C 694.113281 356.9375 692.535156 355.511719 692.796875 354.214844 C 693.054688 352.90625 695.0625 352.21875 697.277344 352.65625 C 699.496094 353.101562 701.074219 354.523438 700.808594 355.816406 Z M 700.808594 355.816406 " fill-opacity="0.698" fill-rule="nonzero"/><path fill="#ffffff" d="M 703.574219 358.664062 C 703.453125 359.265625 702.808594 359.667969 702.136719 359.542969 C 701.46875 359.390625 701.011719 358.789062 701.140625 358.15625 C 701.269531 357.546875 701.902344 357.148438 702.585938 357.285156 C 703.257812 357.414062 703.691406 358.035156 703.574219 358.664062 Z M 703.574219 358.664062 " fill-opacity="1" fill-rule="nonzero"/><path fill="#fcb900" d="M 695.167969 374.636719 C 688.636719 375.292969 682.824219 370.824219 681.527344 364.511719 C 681.527344 364.953125 681.484375 365.390625 681.527344 365.859375 C 682.222656 372.871094 688.457031 378.003906 695.429688 377.304688 C 702.414062 376.617188 707.492188 370.332031 706.796875 363.3125 C 706.757812 362.863281 706.632812 362.433594 706.53125 362.003906 C 706.507812 368.445312 701.691406 373.984375 695.167969 374.636719 Z M 695.167969 374.636719 " fill-opacity="0.2" fill-rule="nonzero"/><path fill="#bd5900" d="M 701.125 363.683594 C 701.539062 367.851562 698.519531 371.554688 694.375 371.964844 C 690.238281 372.386719 686.550781 369.355469 686.136719 365.1875 C 685.722656 361.023438 688.742188 357.316406 692.875 356.894531 C 697.019531 356.484375 700.71875 359.519531 701.125 363.683594 Z M 701.125 363.683594 " fill-opacity="0.4" fill-rule="nonzero"/><path fill="#cf7000" d="M 587.855469 238.574219 C 588.628906 246.417969 582.921875 253.421875 575.121094 254.210938 C 567.3125 255 560.351562 249.253906 559.574219 241.414062 C 558.792969 233.550781 564.488281 226.566406 572.292969 225.777344 C 580.105469 224.996094 587.078125 230.714844 587.855469 238.574219 Z M 587.855469 238.574219 " fill-opacity="0.898" fill-rule="nonzero"/><path fill="#fcb900" d="M 580.816406 230.652344 C 580.566406 231.96875 578.558594 232.65625 576.34375 232.214844 C 574.121094 231.773438 572.542969 230.347656 572.804688 229.050781 C 573.0625 227.742188 575.066406 227.054688 577.285156 227.492188 C 579.5 227.9375 581.078125 229.359375 580.816406 230.652344 Z M 580.816406 230.652344 " fill-opacity="0.698" fill-rule="nonzero"/><path fill="#ffffff" d="M 583.578125 233.5 C 583.460938 234.101562 582.816406 234.503906 582.144531 234.378906 C 581.472656 234.226562 581.019531 233.625 581.144531 232.992188 C 581.277344 232.382812 581.90625 231.984375 582.59375 232.121094 C 583.261719 232.25 583.699219 232.871094 583.578125 233.5 Z M 583.578125 233.5 " fill-opacity="1" fill-rule="nonzero"/><path fill="#fcb900" d="M 575.171875 249.472656 C 568.644531 250.128906 562.832031 245.660156 561.535156 239.347656 C 561.535156 239.789062 561.492188 240.226562 561.535156 240.695312 C 562.230469 247.707031 568.464844 252.839844 575.433594 252.140625 C 582.421875 251.453125 587.5 245.167969 586.800781 238.148438 C 586.761719 237.699219 586.636719 237.269531 586.539062 236.839844 C 586.511719 243.28125 581.699219 248.820312 575.171875 249.472656 Z M 575.171875 249.472656 " fill-opacity="0.2" fill-rule="nonzero"/><path fill="#bd5900" d="M 581.132812 238.519531 C 581.546875 242.6875 578.527344 246.390625 574.382812 246.800781 C 570.246094 247.21875 566.558594 244.191406 566.144531 240.023438 C 565.730469 235.859375 568.75 232.152344 572.882812 231.730469 C 577.027344 231.320312 580.722656 234.355469 581.132812 238.519531 Z M 581.132812 238.519531 " fill-opacity="0.4" fill-rule="nonzero"/><g clip-path="url(#69a1cfa35c)"><path fill="#cf7000" d="M 896.148438 168.390625 C 896.925781 176.230469 891.214844 183.238281 883.414062 184.027344 C 875.605469 184.8125 868.648438 179.070312 867.867188 171.230469 C 867.089844 163.367188 872.785156 156.378906 880.585938 155.59375 C 888.398438 154.8125 895.375 160.53125 896.148438 168.390625 Z M 896.148438 168.390625 " fill-opacity="0.898" fill-rule="nonzero"/></g><path fill="#fcb900" d="M 889.109375 160.46875 C 888.859375 161.785156 886.855469 162.46875 884.636719 162.03125 C 882.414062 161.585938 880.835938 160.160156 881.097656 158.863281 C 881.355469 157.558594 883.363281 156.871094 885.578125 157.304688 C 887.796875 157.753906 889.375 159.175781 889.109375 160.46875 Z M 889.109375 160.46875 " fill-opacity="0.698" fill-rule="nonzero"/><path fill="#ffffff" d="M 891.875 163.3125 C 891.753906 163.914062 891.109375 164.320312 890.4375 164.195312 C 889.769531 164.042969 889.316406 163.441406 889.441406 162.808594 C 889.570312 162.199219 890.203125 161.796875 890.886719 161.933594 C 891.558594 162.0625 891.992188 162.683594 891.875 163.3125 Z M 891.875 163.3125 " fill-opacity="1" fill-rule="nonzero"/><path fill="#fcb900" d="M 883.46875 179.289062 C 876.9375 179.945312 871.125 175.476562 869.828125 169.164062 C 869.828125 169.601562 869.785156 170.042969 869.828125 170.507812 C 870.523438 177.523438 876.757812 182.65625 883.730469 181.957031 C 890.714844 181.265625 895.792969 174.984375 895.097656 167.964844 C 895.058594 167.515625 894.933594 167.085938 894.832031 166.65625 C 894.808594 173.097656 889.992188 178.632812 883.46875 179.289062 Z M 883.46875 179.289062 " fill-opacity="0.2" fill-rule="nonzero"/><path fill="#bd5900" d="M 889.425781 168.335938 C 889.839844 172.503906 886.820312 176.207031 882.675781 176.617188 C 878.539062 177.035156 874.851562 174.003906 874.4375 169.835938 C 874.023438 165.675781 877.042969 161.96875 881.175781 161.546875 C 885.320312 161.136719 889.019531 164.171875 889.425781 168.335938 Z M 889.425781 168.335938 " fill-opacity="0.4" fill-rule="nonzero"/><g clip-path="url(#63558576df)"><path fill="#cf7000" d="M 425.257812 253.632812 C 426.035156 261.476562 420.324219 268.484375 412.523438 269.269531 C 404.714844 270.058594 397.753906 264.3125 396.976562 256.472656 C 396.195312 248.609375 401.894531 241.625 409.695312 240.835938 C 417.507812 240.054688 424.480469 245.773438 425.257812 253.632812 Z M 425.257812 253.632812 " fill-opacity="0.898" fill-rule="nonzero"/></g><path fill="#fcb900" d="M 418.21875 245.710938 C 417.96875 247.027344 415.964844 247.714844 413.746094 247.273438 C 411.523438 246.832031 409.945312 245.40625 410.207031 244.109375 C 410.464844 242.800781 412.46875 242.113281 414.6875 242.550781 C 416.902344 242.996094 418.484375 244.417969 418.21875 245.710938 Z M 418.21875 245.710938 " fill-opacity="0.698" fill-rule="nonzero"/><path fill="#ffffff" d="M 420.980469 248.558594 C 420.863281 249.160156 420.21875 249.5625 419.546875 249.4375 C 418.875 249.285156 418.421875 248.683594 418.546875 248.050781 C 418.679688 247.441406 419.3125 247.042969 419.996094 247.179688 C 420.667969 247.308594 421.101562 247.929688 420.980469 248.558594 Z M 420.980469 248.558594 " fill-opacity="1" fill-rule="nonzero"/><path fill="#fcb900" d="M 412.574219 264.53125 C 406.046875 265.1875 400.234375 260.71875 398.9375 254.40625 C 398.9375 254.847656 398.894531 255.285156 398.9375 255.753906 C 399.632812 262.765625 405.867188 267.898438 412.839844 267.199219 C 419.824219 266.511719 424.902344 260.226562 424.207031 253.207031 C 424.164062 252.757812 424.039062 252.328125 423.941406 251.898438 C 423.914062 258.339844 419.101562 263.878906 412.574219 264.53125 Z M 412.574219 264.53125 " fill-opacity="0.2" fill-rule="nonzero"/><path fill="#bd5900" d="M 418.535156 253.578125 C 418.949219 257.746094 415.929688 261.449219 411.785156 261.859375 C 407.648438 262.28125 403.960938 259.25 403.546875 255.082031 C 403.132812 250.917969 406.152344 247.210938 410.285156 246.789062 C 414.429688 246.378906 418.128906 249.414062 418.535156 253.578125 Z M 418.535156 253.578125 " fill-opacity="0.4" fill-rule="nonzero"/><g clip-path="url(#f561d22841)"><path fill="#cf7000" d="M 398.386719 28.457031 C 399.160156 36.300781 393.453125 43.304688 385.652344 44.09375 C 377.84375 44.878906 370.882812 39.136719 370.105469 31.296875 C 369.324219 23.433594 375.019531 16.445312 382.820312 15.660156 C 390.636719 14.878906 397.609375 20.597656 398.386719 28.457031 Z M 398.386719 28.457031 " fill-opacity="0.898" fill-rule="nonzero"/></g><path fill="#fcb900" d="M 391.347656 20.535156 C 391.097656 21.851562 389.089844 22.539062 386.875 22.097656 C 384.652344 21.652344 383.070312 20.226562 383.335938 18.929688 C 383.589844 17.625 385.597656 16.9375 387.8125 17.375 C 390.03125 17.820312 391.609375 19.242188 391.347656 20.535156 Z M 391.347656 20.535156 " fill-opacity="0.698" fill-rule="nonzero"/><path fill="#ffffff" d="M 394.109375 23.382812 C 393.992188 23.984375 393.347656 24.386719 392.675781 24.261719 C 392.003906 24.109375 391.550781 23.507812 391.675781 22.875 C 391.808594 22.265625 392.4375 21.867188 393.121094 22 C 393.792969 22.128906 394.226562 22.753906 394.109375 23.382812 Z M 394.109375 23.382812 " fill-opacity="1" fill-rule="nonzero"/><path fill="#fcb900" d="M 385.703125 39.355469 C 379.175781 40.011719 373.363281 35.542969 372.0625 29.230469 C 372.0625 29.667969 372.019531 30.109375 372.0625 30.574219 C 372.761719 37.589844 378.992188 42.722656 385.964844 42.023438 C 392.953125 41.332031 398.03125 35.050781 397.332031 28.03125 C 397.292969 27.582031 397.167969 27.152344 397.070312 26.722656 C 397.042969 33.164062 392.226562 38.699219 385.703125 39.355469 Z M 385.703125 39.355469 " fill-opacity="0.2" fill-rule="nonzero"/><path fill="#bd5900" d="M 391.664062 28.402344 C 392.078125 32.570312 389.058594 36.273438 384.914062 36.683594 C 380.777344 37.101562 377.089844 34.074219 376.675781 29.90625 C 376.261719 25.742188 379.28125 22.035156 383.414062 21.613281 C 387.558594 21.203125 391.253906 24.238281 391.664062 28.402344 Z M 391.664062 28.402344 " fill-opacity="0.4" fill-rule="nonzero"/><g clip-path="url(#969d681b1f)"><path fill="#cf7000" d="M 234.246094 28.457031 C 235.023438 36.300781 229.3125 43.304688 221.511719 44.09375 C 213.703125 44.878906 206.746094 39.136719 205.964844 31.296875 C 205.183594 23.433594 210.882812 16.445312 218.683594 15.660156 C 226.496094 14.878906 233.46875 20.597656 234.246094 28.457031 Z M 234.246094 28.457031 " fill-opacity="0.898" fill-rule="nonzero"/></g><path fill="#fcb900" d="M 227.207031 20.535156 C 226.957031 21.851562 224.953125 22.539062 222.734375 22.097656 C 220.511719 21.652344 218.933594 20.226562 219.195312 18.929688 C 219.453125 17.625 221.457031 16.9375 223.675781 17.375 C 225.890625 17.820312 227.472656 19.242188 227.207031 20.535156 Z M 227.207031 20.535156 " fill-opacity="0.698" fill-rule="nonzero"/><path fill="#ffffff" d="M 229.972656 23.382812 C 229.851562 23.984375 229.207031 24.386719 228.535156 24.261719 C 227.867188 24.109375 227.410156 23.507812 227.535156 22.875 C 227.667969 22.265625 228.300781 21.867188 228.984375 22 C 229.65625 22.128906 230.089844 22.753906 229.972656 23.382812 Z M 229.972656 23.382812 " fill-opacity="1" fill-rule="nonzero"/><path fill="#fcb900" d="M 221.5625 39.355469 C 215.035156 40.011719 209.222656 35.542969 207.925781 29.230469 C 207.925781 29.667969 207.882812 30.109375 207.925781 30.574219 C 208.621094 37.589844 214.855469 42.722656 221.828125 42.023438 C 228.8125 41.332031 233.890625 35.050781 233.195312 28.03125 C 233.15625 27.582031 233.03125 27.152344 232.929688 26.722656 C 232.90625 33.164062 228.089844 38.699219 221.5625 39.355469 Z M 221.5625 39.355469 " fill-opacity="0.2" fill-rule="nonzero"/><path fill="#bd5900" d="M 227.523438 28.402344 C 227.9375 32.570312 224.917969 36.273438 220.773438 36.683594 C 216.636719 37.101562 212.949219 34.074219 212.535156 29.90625 C 212.121094 25.742188 215.140625 22.035156 219.273438 21.613281 C 223.417969 21.203125 227.117188 24.238281 227.523438 28.402344 Z M 227.523438 28.402344 " fill-opacity="0.4" fill-rule="nonzero"/><g clip-path="url(#7779f185bd)"><path fill="#cf7000" d="M 839.132812 426.460938 C 839.910156 434.304688 834.199219 441.3125 826.398438 442.097656 C 818.589844 442.886719 811.628906 437.144531 810.851562 429.304688 C 810.070312 421.441406 815.769531 414.453125 823.570312 413.667969 C 831.382812 412.886719 838.355469 418.605469 839.132812 426.460938 Z M 839.132812 426.460938 " fill-opacity="0.898" fill-rule="nonzero"/></g><path fill="#fcb900" d="M 832.09375 418.542969 C 831.84375 419.859375 829.839844 420.542969 827.621094 420.105469 C 825.398438 419.660156 823.820312 418.234375 824.082031 416.9375 C 824.339844 415.632812 826.34375 414.945312 828.5625 415.378906 C 830.777344 415.828125 832.359375 417.25 832.09375 418.542969 Z M 832.09375 418.542969 " fill-opacity="0.698" fill-rule="nonzero"/><path fill="#ffffff" d="M 834.855469 421.386719 C 834.738281 421.988281 834.09375 422.394531 833.421875 422.265625 C 832.753906 422.117188 832.296875 421.511719 832.421875 420.882812 C 832.554688 420.273438 833.1875 419.871094 833.871094 420.007812 C 834.542969 420.136719 834.976562 420.757812 834.855469 421.386719 Z M 834.855469 421.386719 " fill-opacity="1" fill-rule="nonzero"/><path fill="#fcb900" d="M 826.449219 437.363281 C 819.921875 438.015625 814.109375 433.546875 812.8125 427.234375 C 812.8125 427.675781 812.769531 428.117188 812.8125 428.582031 C 813.507812 435.59375 819.742188 440.730469 826.714844 440.027344 C 833.699219 439.339844 838.777344 433.058594 838.082031 426.039062 C 838.042969 425.589844 837.914062 425.160156 837.816406 424.726562 C 837.792969 431.167969 832.976562 436.707031 826.449219 437.363281 Z M 826.449219 437.363281 " fill-opacity="0.2" fill-rule="nonzero"/><path fill="#bd5900" d="M 832.410156 426.410156 C 832.824219 430.578125 829.804688 434.277344 825.660156 434.6875 C 821.523438 435.109375 817.835938 432.078125 817.421875 427.910156 C 817.007812 423.75 820.027344 420.039062 824.160156 419.621094 C 828.304688 419.210938 832.003906 422.246094 832.410156 426.410156 Z M 832.410156 426.410156 " fill-opacity="0.4" fill-rule="nonzero"/><g clip-path="url(#bc5a45ea86)"><path fill="#cf7000" d="M 234.246094 368.535156 C 235.023438 376.378906 229.3125 383.386719 221.511719 384.171875 C 213.703125 384.960938 206.746094 379.21875 205.964844 371.375 C 205.183594 363.511719 210.882812 356.527344 218.683594 355.738281 C 226.496094 354.957031 233.46875 360.679688 234.246094 368.535156 Z M 234.246094 368.535156 " fill-opacity="0.898" fill-rule="nonzero"/></g><path fill="#fcb900" d="M 227.207031 360.617188 C 226.957031 361.933594 224.953125 362.617188 222.734375 362.175781 C 220.511719 361.734375 218.933594 360.308594 219.195312 359.011719 C 219.453125 357.703125 221.457031 357.015625 223.675781 357.453125 C 225.890625 357.898438 227.472656 359.320312 227.207031 360.617188 Z M 227.207031 360.617188 " fill-opacity="0.698" fill-rule="nonzero"/><path fill="#ffffff" d="M 229.972656 363.460938 C 229.851562 364.0625 229.207031 364.464844 228.535156 364.339844 C 227.867188 364.1875 227.410156 363.585938 227.535156 362.953125 C 227.667969 362.34375 228.300781 361.945312 228.984375 362.082031 C 229.65625 362.210938 230.089844 362.832031 229.972656 363.460938 Z M 229.972656 363.460938 " fill-opacity="1" fill-rule="nonzero"/><path fill="#fcb900" d="M 221.5625 379.433594 C 215.035156 380.089844 209.222656 375.621094 207.925781 369.308594 C 207.925781 369.75 207.882812 370.1875 207.925781 370.65625 C 208.621094 377.667969 214.855469 382.804688 221.828125 382.101562 C 228.8125 381.414062 233.890625 375.132812 233.195312 368.113281 C 233.15625 367.660156 233.03125 367.230469 232.929688 366.800781 C 232.90625 373.242188 228.089844 378.78125 221.5625 379.433594 Z M 221.5625 379.433594 " fill-opacity="0.2" fill-rule="nonzero"/><path fill="#bd5900" d="M 227.523438 368.480469 C 227.9375 372.648438 224.917969 376.351562 220.773438 376.761719 C 216.636719 377.183594 212.949219 374.152344 212.535156 369.984375 C 212.121094 365.824219 215.140625 362.113281 219.273438 361.695312 C 223.417969 361.285156 227.117188 364.316406 227.523438 368.480469 Z M 227.523438 368.480469 " fill-opacity="0.4" fill-rule="nonzero"/></svg>