<svg xmlns="http://www.w3.org/2000/svg" xmlns:xlink="http://www.w3.org/1999/xlink" width="600" zoomAndPan="magnify" viewBox="0 0 450 449.999984" height="600" preserveAspectRatio="xMidYMid meet" version="1.0"><defs><filter x="0%" y="0%" width="100%" height="100%" id="542efc744b"><feColorMatrix values="0 0 0 0 1 0 0 0 0 1 0 0 0 0 1 0 0 0 1 0" color-interpolation-filters="sRGB"/></filter><g/><clipPath id="dc8f45017c"><path d="M 105 36 L 147.722656 36 L 147.722656 208 L 105 208 Z M 105 36 " clip-rule="nonzero"/></clipPath><clipPath id="79e6f0eb5e"><path d="M 46.304688 118.265625 L 175.640625 118.265625 L 175.640625 406 L 46.304688 406 Z M 46.304688 118.265625 " clip-rule="nonzero"/></clipPath><clipPath id="d3e331f305"><path d="M 62.804688 118.265625 L 159.140625 118.265625 C 168.253906 118.265625 175.640625 125.652344 175.640625 134.765625 L 175.640625 389.179688 C 175.640625 398.292969 168.253906 405.679688 159.140625 405.679688 L 62.804688 405.679688 C 53.691406 405.679688 46.304688 398.292969 46.304688 389.179688 L 46.304688 134.765625 C 46.304688 125.652344 53.691406 118.265625 62.804688 118.265625 " clip-rule="nonzero"/></clipPath><clipPath id="e259115028"><path d="M 46.304688 118.269531 L 175.304688 118.269531 L 175.304688 405.515625 L 46.304688 405.515625 Z M 46.304688 118.269531 " clip-rule="nonzero"/></clipPath><clipPath id="d53fe72d10"><path d="M 62.761719 118.269531 L 158.847656 118.269531 C 167.933594 118.269531 175.304688 125.652344 175.304688 134.757812 L 175.304688 389.019531 C 175.304688 398.128906 167.933594 405.511719 158.847656 405.511719 L 62.761719 405.511719 C 53.671875 405.511719 46.304688 398.128906 46.304688 389.019531 L 46.304688 134.757812 C 46.304688 125.652344 53.671875 118.269531 62.761719 118.269531 " clip-rule="nonzero"/></clipPath><mask id="b82f8855e4"><g filter="url(#542efc744b)"><rect x="-45" width="540" fill="#000000" y="-44.999998" height="539.99998" fill-opacity="0.149"/></g></mask><clipPath id="0bf96588c2"><path d="M 28.375 28.402344 L 52.375 28.402344 L 52.375 52.402344 L 28.375 52.402344 Z M 28.375 28.402344 " clip-rule="nonzero"/></clipPath><clipPath id="fda4c1ed49"><path d="M 40.375 28.402344 C 33.746094 28.402344 28.375 33.773438 28.375 40.402344 C 28.375 47.027344 33.746094 52.402344 40.375 52.402344 C 47 52.402344 52.375 47.027344 52.375 40.402344 C 52.375 33.773438 47 28.402344 40.375 28.402344 " clip-rule="nonzero"/></clipPath><clipPath id="3590b8f5c6"><rect x="0" width="80" y="0" height="80"/></clipPath><clipPath id="307477481b"><path d="M 46.304688 118.265625 L 175.640625 118.265625 L 175.640625 233.230469 L 46.304688 233.230469 Z M 46.304688 118.265625 " clip-rule="nonzero"/></clipPath><clipPath id="4da2c03ec1"><path d="M 46.304688 118.265625 L 175.304688 118.265625 L 175.304688 233.011719 L 46.304688 233.011719 Z M 46.304688 118.265625 " clip-rule="nonzero"/></clipPath><mask id="ca3fc908c6"><g filter="url(#542efc744b)"><rect x="-45" width="540" fill="#000000" y="-44.999998" height="539.99998" fill-opacity="0.149"/></g></mask><clipPath id="a46417b636"><path d="M 28.03125 27.671875 L 52.03125 27.671875 L 52.03125 51.671875 L 28.03125 51.671875 Z M 28.03125 27.671875 " clip-rule="nonzero"/></clipPath><clipPath id="408b459f57"><path d="M 40.03125 27.671875 C 33.40625 27.671875 28.03125 33.042969 28.03125 39.671875 C 28.03125 46.300781 33.40625 51.671875 40.03125 51.671875 C 46.660156 51.671875 52.03125 46.300781 52.03125 39.671875 C 52.03125 33.042969 46.660156 27.671875 40.03125 27.671875 " clip-rule="nonzero"/></clipPath><clipPath id="85a29f3e43"><rect x="0" width="80" y="0" height="80"/></clipPath><mask id="087aa2b262"><g filter="url(#542efc744b)"><rect x="-45" width="540" fill="#000000" y="-44.999998" height="539.99998" fill-opacity="0.149"/></g></mask><clipPath id="cbc2af57cd"><path d="M 28.414062 27.878906 L 52.414062 27.878906 L 52.414062 51.878906 L 28.414062 51.878906 Z M 28.414062 27.878906 " clip-rule="nonzero"/></clipPath><clipPath id="cab29a9568"><path d="M 40.414062 27.878906 C 33.789062 27.878906 28.414062 33.253906 28.414062 39.878906 C 28.414062 46.507812 33.789062 51.878906 40.414062 51.878906 C 47.042969 51.878906 52.414062 46.507812 52.414062 39.878906 C 52.414062 33.253906 47.042969 27.878906 40.414062 27.878906 " clip-rule="nonzero"/></clipPath><clipPath id="917ed4a326"><rect x="0" width="80" y="0" height="80"/></clipPath><mask id="92745cba56"><g filter="url(#542efc744b)"><rect x="-45" width="540" fill="#000000" y="-44.999998" height="539.99998" fill-opacity="0.149"/></g></mask><clipPath id="05bbbb12e6"><path d="M 28 27.878906 L 52 27.878906 L 52 51.878906 L 28 51.878906 Z M 28 27.878906 " clip-rule="nonzero"/></clipPath><clipPath id="0c6706e2b1"><path d="M 40 27.878906 C 33.371094 27.878906 28 33.253906 28 39.878906 C 28 46.507812 33.371094 51.878906 40 51.878906 C 46.628906 51.878906 52 46.507812 52 39.878906 C 52 33.253906 46.628906 27.878906 40 27.878906 " clip-rule="nonzero"/></clipPath><clipPath id="ac4aadc61f"><rect x="0" width="80" y="0" height="80"/></clipPath><mask id="4836a3016f"><g filter="url(#542efc744b)"><rect x="-45" width="540" fill="#000000" y="-44.999998" height="539.99998" fill-opacity="0.149"/></g></mask><clipPath id="4309236751"><path d="M 28.375 28.015625 L 52.375 28.015625 L 52.375 52.015625 L 28.375 52.015625 Z M 28.375 28.015625 " clip-rule="nonzero"/></clipPath><clipPath id="6c0db4b460"><path d="M 40.375 28.015625 C 33.746094 28.015625 28.375 33.390625 28.375 40.015625 C 28.375 46.644531 33.746094 52.015625 40.375 52.015625 C 47 52.015625 52.375 46.644531 52.375 40.015625 C 52.375 33.390625 47 28.015625 40.375 28.015625 " clip-rule="nonzero"/></clipPath><clipPath id="8ff99fb90b"><rect x="0" width="80" y="0" height="80"/></clipPath><mask id="11801e96dd"><g filter="url(#542efc744b)"><rect x="-45" width="540" fill="#000000" y="-44.999998" height="539.99998" fill-opacity="0.149"/></g></mask><clipPath id="baf4c29635"><path d="M 27.929688 27.671875 L 51.929688 27.671875 L 51.929688 51.671875 L 27.929688 51.671875 Z M 27.929688 27.671875 " clip-rule="nonzero"/></clipPath><clipPath id="d04817e695"><path d="M 39.929688 27.671875 C 33.300781 27.671875 27.929688 33.042969 27.929688 39.671875 C 27.929688 46.300781 33.300781 51.671875 39.929688 51.671875 C 46.554688 51.671875 51.929688 46.300781 51.929688 39.671875 C 51.929688 33.042969 46.554688 27.671875 39.929688 27.671875 " clip-rule="nonzero"/></clipPath><clipPath id="e460baadd7"><rect x="0" width="80" y="0" height="80"/></clipPath><mask id="fb16ba8ea1"><g filter="url(#542efc744b)"><rect x="-45" width="540" fill="#000000" y="-44.999998" height="539.99998" fill-opacity="0.149"/></g></mask><clipPath id="da457d448c"><path d="M 28.3125 27.878906 L 52.3125 27.878906 L 52.3125 51.878906 L 28.3125 51.878906 Z M 28.3125 27.878906 " clip-rule="nonzero"/></clipPath><clipPath id="0b06a8eed9"><path d="M 40.3125 27.878906 C 33.683594 27.878906 28.3125 33.253906 28.3125 39.878906 C 28.3125 46.507812 33.683594 51.878906 40.3125 51.878906 C 46.9375 51.878906 52.3125 46.507812 52.3125 39.878906 C 52.3125 33.253906 46.9375 27.878906 40.3125 27.878906 " clip-rule="nonzero"/></clipPath><clipPath id="a92b1841f0"><rect x="0" width="80" y="0" height="80"/></clipPath><mask id="4988f5592f"><g filter="url(#542efc744b)"><rect x="-45" width="540" fill="#000000" y="-44.999998" height="539.99998" fill-opacity="0.149"/></g></mask><clipPath id="d495d3cfc4"><path d="M 27.894531 27.878906 L 51.894531 27.878906 L 51.894531 51.878906 L 27.894531 51.878906 Z M 27.894531 27.878906 " clip-rule="nonzero"/></clipPath><clipPath id="d0b49d612c"><path d="M 39.894531 27.878906 C 33.269531 27.878906 27.894531 33.253906 27.894531 39.878906 C 27.894531 46.507812 33.269531 51.878906 39.894531 51.878906 C 46.523438 51.878906 51.894531 46.507812 51.894531 39.878906 C 51.894531 33.253906 46.523438 27.878906 39.894531 27.878906 " clip-rule="nonzero"/></clipPath><clipPath id="1bcbd81c99"><rect x="0" width="80" y="0" height="80"/></clipPath><mask id="c15a5c5654"><g filter="url(#542efc744b)"><rect x="-45" width="540" fill="#000000" y="-44.999998" height="539.99998" fill-opacity="0.149"/></g></mask><clipPath id="c05800f4c6"><path d="M 28.269531 28.015625 L 52.269531 28.015625 L 52.269531 52.015625 L 28.269531 52.015625 Z M 28.269531 28.015625 " clip-rule="nonzero"/></clipPath><clipPath id="03a5c6bbe2"><path d="M 40.269531 28.015625 C 33.640625 28.015625 28.269531 33.390625 28.269531 40.015625 C 28.269531 46.644531 33.640625 52.015625 40.269531 52.015625 C 46.898438 52.015625 52.269531 46.644531 52.269531 40.015625 C 52.269531 33.390625 46.898438 28.015625 40.269531 28.015625 " clip-rule="nonzero"/></clipPath><clipPath id="325272b654"><rect x="0" width="80" y="0" height="80"/></clipPath><mask id="7460c77cc7"><g filter="url(#542efc744b)"><rect x="-45" width="540" fill="#000000" y="-44.999998" height="539.99998" fill-opacity="0.149"/></g></mask><clipPath id="56ea54977c"><path d="M 28.144531 27.878906 L 52.144531 27.878906 L 52.144531 51.878906 L 28.144531 51.878906 Z M 28.144531 27.878906 " clip-rule="nonzero"/></clipPath><clipPath id="9e1290a6ef"><path d="M 40.144531 27.878906 C 33.515625 27.878906 28.144531 33.253906 28.144531 39.878906 C 28.144531 46.507812 33.515625 51.878906 40.144531 51.878906 C 46.769531 51.878906 52.144531 46.507812 52.144531 39.878906 C 52.144531 33.253906 46.769531 27.878906 40.144531 27.878906 " clip-rule="nonzero"/></clipPath><clipPath id="227170dadb"><rect x="0" width="80" y="0" height="80"/></clipPath><mask id="7c1fe495a3"><g filter="url(#542efc744b)"><rect x="-45" width="540" fill="#000000" y="-44.999998" height="539.99998" fill-opacity="0.149"/></g></mask><clipPath id="86741e5ac1"><path d="M 28.144531 27.808594 L 52.144531 27.808594 L 52.144531 51.808594 L 28.144531 51.808594 Z M 28.144531 27.808594 " clip-rule="nonzero"/></clipPath><clipPath id="abff036a41"><path d="M 40.144531 27.808594 C 33.515625 27.808594 28.144531 33.179688 28.144531 39.808594 C 28.144531 46.433594 33.515625 51.808594 40.144531 51.808594 C 46.769531 51.808594 52.144531 46.433594 52.144531 39.808594 C 52.144531 33.179688 46.769531 27.808594 40.144531 27.808594 " clip-rule="nonzero"/></clipPath><clipPath id="94c2d75099"><rect x="0" width="80" y="0" height="80"/></clipPath></defs><g clip-path="url(#dc8f45017c)"><path fill="#7d7471" d="M 118.585938 205.210938 C 118.285156 205.511719 115.507812 208.242188 111.402344 207.601562 C 107.042969 206.960938 105.203125 203.121094 105.074219 202.820312 C 114.738281 148.039062 124.445312 93.257812 134.105469 38.476562 C 134.492188 38.136719 137.65625 35.742188 141.800781 36.640625 C 145.519531 37.453125 147.316406 40.355469 147.617188 40.867188 C 137.910156 95.691406 128.25 150.429688 118.585938 205.210938 Z M 118.585938 205.210938 " fill-opacity="1" fill-rule="nonzero"/></g><g clip-path="url(#79e6f0eb5e)"><g clip-path="url(#d3e331f305)"><path fill="#622e21" d="M 46.304688 118.265625 L 175.640625 118.265625 L 175.640625 405.230469 L 46.304688 405.230469 Z M 46.304688 118.265625 " fill-opacity="1" fill-rule="nonzero"/></g></g><g clip-path="url(#e259115028)"><g clip-path="url(#d53fe72d10)"><path stroke-linecap="butt" transform="matrix(0.748097, 0, 0, 0.749602, 46.303394, 118.267834)" fill="none" stroke-linejoin="miter" d="M 22.000253 0.00226422 L 150.440719 0.00226422 C 162.586118 0.00226422 172.439242 9.851236 172.439242 21.998301 L 172.439242 361.193753 C 172.439242 373.346029 162.586118 383.195 150.440719 383.195 L 22.000253 383.195 C 9.849632 383.195 0.00172886 373.346029 0.00172886 361.193753 L 0.00172886 21.998301 C 0.00172886 9.851236 9.849632 0.00226422 22.000253 0.00226422 " stroke="#7d7471" stroke-width="10" stroke-opacity="1" stroke-miterlimit="4"/></g></g><g mask="url(#b82f8855e4)"><g transform="matrix(1, 0, 0, 1, 32, 78)"><g clip-path="url(#3590b8f5c6)"><g clip-path="url(#0bf96588c2)"><g clip-path="url(#fda4c1ed49)"><path stroke-linecap="butt" transform="matrix(0.758893, 0, 0, 0.758893, 28.373311, 28.400412)" fill="none" stroke-linejoin="miter" d="M 15.814725 0.00254597 C 7.07976 0.00254597 0.00222502 7.080081 0.00222502 15.815046 C 0.00222502 24.544864 7.07976 31.627547 15.814725 31.627547 C 24.544543 31.627547 31.627226 24.544864 31.627226 15.815046 C 31.627226 7.080081 24.544543 0.00254597 15.814725 0.00254597 " stroke="#e0d1c7" stroke-width="18" stroke-opacity="1" stroke-miterlimit="4"/></g></g></g></g></g><g clip-path="url(#307477481b)"><path fill="#99b5de" d="M 46.304688 118.265625 L 175.640625 118.265625 L 175.640625 233.453125 L 46.304688 233.453125 Z M 46.304688 118.265625 " fill-opacity="1" fill-rule="nonzero"/></g><g clip-path="url(#4da2c03ec1)"><path stroke-linecap="butt" transform="matrix(0.748097, 0, 0, 0.748624, 46.303394, 118.265888)" fill="none" stroke-linejoin="miter" d="M 0.00172886 -0.000350762 L 172.439242 -0.000350762 L 172.439242 153.275696 L 0.00172886 153.275696 L 0.00172886 -0.000350762 " stroke="#7d7471" stroke-width="10" stroke-opacity="1" stroke-miterlimit="4"/></g><g mask="url(#ca3fc908c6)"><g transform="matrix(1, 0, 0, 1, 55, 55)"><g clip-path="url(#85a29f3e43)"><g clip-path="url(#a46417b636)"><g clip-path="url(#408b459f57)"><path stroke-linecap="butt" transform="matrix(0.758893, 0, 0, 0.758893, 28.032223, 27.672054)" fill="none" stroke-linejoin="miter" d="M 15.811218 -0.000236029 C 7.0814 -0.000236029 -0.0012825 7.077299 -0.0012825 15.812264 C -0.0012825 24.54723 7.0814 31.624765 15.811218 31.624765 C 24.546183 31.624765 31.623718 24.54723 31.623718 15.812264 C 31.623718 7.077299 24.546183 -0.000236029 15.811218 -0.000236029 " stroke="#845043" stroke-width="18" stroke-opacity="1" stroke-miterlimit="4"/></g></g></g></g></g><g mask="url(#087aa2b262)"><g transform="matrix(1, 0, 0, 1, 48, 71)"><g clip-path="url(#917ed4a326)"><g clip-path="url(#cbc2af57cd)"><g clip-path="url(#cab29a9568)"><path stroke-linecap="butt" transform="matrix(0.758893, 0, 0, 0.758893, 28.415019, 27.880842)" fill="none" stroke-linejoin="miter" d="M 15.811239 -0.00255062 C 7.081422 -0.00255062 -0.00126091 7.080132 -0.00126091 15.80995 C -0.00126091 24.544915 7.081422 31.62245 15.811239 31.62245 C 24.546205 31.62245 31.62374 24.544915 31.62374 15.80995 C 31.62374 7.080132 24.546205 -0.00255062 15.811239 -0.00255062 " stroke="#845043" stroke-width="18" stroke-opacity="1" stroke-miterlimit="4"/></g></g></g></g></g><g mask="url(#92745cba56)"><g transform="matrix(1, 0, 0, 1, 17, 71)"><g clip-path="url(#ac4aadc61f)"><g clip-path="url(#05bbbb12e6)"><g clip-path="url(#0c6706e2b1)"><path stroke-linecap="butt" transform="matrix(0.758893, 0, 0, 0.758893, 28.000005, 27.880842)" fill="none" stroke-linejoin="miter" d="M 15.812494 -0.00255062 C 7.077529 -0.00255062 -0.00000612076 7.080132 -0.00000612076 15.80995 C -0.00000612076 24.544915 7.077529 31.62245 15.812494 31.62245 C 24.54746 31.62245 31.624995 24.544915 31.624995 15.80995 C 31.624995 7.080132 24.54746 -0.00255062 15.812494 -0.00255062 " stroke="#845043" stroke-width="18" stroke-opacity="1" stroke-miterlimit="4"/></g></g></g></g></g><g mask="url(#4836a3016f)"><g transform="matrix(1, 0, 0, 1, 32, 59)"><g clip-path="url(#8ff99fb90b)"><g clip-path="url(#4309236751)"><g clip-path="url(#6c0db4b460)"><path stroke-linecap="butt" transform="matrix(0.758893, 0, 0, 0.758893, 28.373311, 28.016663)" fill="none" stroke-linejoin="miter" d="M 15.814725 -0.00136797 C 7.07976 -0.00136797 0.00222502 7.081315 0.00222502 15.811132 C 0.00222502 24.546098 7.07976 31.623633 15.814725 31.623633 C 24.544543 31.623633 31.627226 24.546098 31.627226 15.811132 C 31.627226 7.081315 24.544543 -0.00136797 15.814725 -0.00136797 " stroke="#845043" stroke-width="18" stroke-opacity="1" stroke-miterlimit="4"/></g></g></g></g></g><g mask="url(#11801e96dd)"><g transform="matrix(1, 0, 0, 1, 105, 55)"><g clip-path="url(#e460baadd7)"><g clip-path="url(#baf4c29635)"><g clip-path="url(#d04817e695)"><path stroke-linecap="butt" transform="matrix(0.758893, 0, 0, 0.758893, 27.928636, 27.672054)" fill="none" stroke-linejoin="miter" d="M 15.813887 -0.000236029 C 7.078921 -0.000236029 0.00138615 7.077299 0.00138615 15.812264 C 0.00138615 24.54723 7.078921 31.624765 15.813887 31.624765 C 24.543705 31.624765 31.626387 24.54723 31.626387 15.812264 C 31.626387 7.077299 24.543705 -0.000236029 15.813887 -0.000236029 " stroke="#845043" stroke-width="18" stroke-opacity="1" stroke-miterlimit="4"/></g></g></g></g></g><g mask="url(#fb16ba8ea1)"><g transform="matrix(1, 0, 0, 1, 98, 71)"><g clip-path="url(#a92b1841f0)"><g clip-path="url(#da457d448c)"><g clip-path="url(#0b06a8eed9)"><path stroke-linecap="butt" transform="matrix(0.758893, 0, 0, 0.758893, 28.311409, 27.880842)" fill="none" stroke-linejoin="miter" d="M 15.813938 -0.00255062 C 7.078972 -0.00255062 0.00143716 7.080132 0.00143716 15.80995 C 0.00143716 24.544915 7.078972 31.62245 15.813938 31.62245 C 24.543756 31.62245 31.626438 24.544915 31.626438 15.80995 C 31.626438 7.080132 24.543756 -0.00255062 15.813938 -0.00255062 " stroke="#845043" stroke-width="18" stroke-opacity="1" stroke-miterlimit="4"/></g></g></g></g></g><g mask="url(#4988f5592f)"><g transform="matrix(1, 0, 0, 1, 67, 71)"><g clip-path="url(#1bcbd81c99)"><g clip-path="url(#d495d3cfc4)"><g clip-path="url(#d0b49d612c)"><path stroke-linecap="butt" transform="matrix(0.758893, 0, 0, 0.758893, 27.896409, 27.880842)" fill="none" stroke-linejoin="miter" d="M 15.810025 -0.00255062 C 7.080208 -0.00255062 -0.00247496 7.080132 -0.00247496 15.80995 C -0.00247496 24.544915 7.080208 31.62245 15.810025 31.62245 C 24.544991 31.62245 31.622526 24.544915 31.622526 15.80995 C 31.622526 7.080132 24.544991 -0.00255062 15.810025 -0.00255062 " stroke="#845043" stroke-width="18" stroke-opacity="1" stroke-miterlimit="4"/></g></g></g></g></g><g mask="url(#c15a5c5654)"><g transform="matrix(1, 0, 0, 1, 82, 59)"><g clip-path="url(#325272b654)"><g clip-path="url(#c05800f4c6)"><g clip-path="url(#03a5c6bbe2)"><path stroke-linecap="butt" transform="matrix(0.758893, 0, 0, 0.758893, 28.269709, 28.016663)" fill="none" stroke-linejoin="miter" d="M 15.812266 -0.00136797 C 7.077301 -0.00136797 -0.00023433 7.081315 -0.00023433 15.811132 C -0.00023433 24.546098 7.077301 31.623633 15.812266 31.623633 C 24.547231 31.623633 31.624766 24.546098 31.624766 15.811132 C 31.624766 7.081315 24.547231 -0.00136797 15.812266 -0.00136797 " stroke="#845043" stroke-width="18" stroke-opacity="1" stroke-miterlimit="4"/></g></g></g></g></g><g mask="url(#7460c77cc7)"><g transform="matrix(1, 0, 0, 1, 123, 71)"><g clip-path="url(#227170dadb)"><g clip-path="url(#56ea54977c)"><g clip-path="url(#9e1290a6ef)"><path stroke-linecap="butt" transform="matrix(0.758893, 0, 0, 0.758893, 28.142648, 27.880842)" fill="none" stroke-linejoin="miter" d="M 15.814982 -0.00255062 C 7.080017 -0.00255062 0.00248203 7.080132 0.00248203 15.80995 C 0.00248203 24.544915 7.080017 31.62245 15.814982 31.62245 C 24.5448 31.62245 31.627483 24.544915 31.627483 15.80995 C 31.627483 7.080132 24.5448 -0.00255062 15.814982 -0.00255062 " stroke="#845043" stroke-width="18" stroke-opacity="1" stroke-miterlimit="4"/></g></g></g></g></g><g mask="url(#7c1fe495a3)"><g transform="matrix(1, 0, 0, 1, 72, 43)"><g clip-path="url(#94c2d75099)"><g clip-path="url(#86741e5ac1)"><g clip-path="url(#abff036a41)"><path stroke-linecap="butt" transform="matrix(0.758893, 0, 0, 0.758893, 28.143377, 27.807875)" fill="none" stroke-linejoin="miter" d="M 15.814021 0.000946622 C 7.079056 0.000946622 0.00152108 7.078482 0.00152108 15.813447 C 0.00152108 24.543265 7.079056 31.625947 15.814021 31.625947 C 24.543839 31.625947 31.626522 24.543265 31.626522 15.813447 C 31.626522 7.078482 24.543839 0.000946622 15.814021 0.000946622 " stroke="#845043" stroke-width="18" stroke-opacity="1" stroke-miterlimit="4"/></g></g></g></g></g><g fill="#f2e6d6" fill-opacity="1"><g transform="translate(65.747801, 321.481528)"><g><path d="M 22.609375 -13.78125 C 22.148438 -9.25 20.191406 -6.984375 16.734375 -6.984375 C 15.535156 -6.984375 13.804688 -7.425781 11.546875 -8.3125 C 9.335938 -9.21875 7.660156 -9.671875 6.515625 -9.671875 C 5.796875 -9.671875 5.203125 -9.398438 4.734375 -8.859375 C 4.265625 -8.328125 3.976562 -7.691406 3.875 -6.953125 L 1.078125 -6.953125 C 1.234375 -8.921875 1.765625 -10.488281 2.671875 -11.65625 C 3.710938 -13.070312 5.140625 -13.78125 6.953125 -13.78125 C 8.097656 -13.78125 9.8125 -13.335938 12.09375 -12.453125 C 14.414062 -11.609375 16.125 -11.1875 17.21875 -11.1875 C 18.65625 -11.1875 19.519531 -12.050781 19.8125 -13.78125 Z M 22.609375 -13.78125 "/></g></g></g><g fill="#f2e6d6" fill-opacity="1"><g transform="translate(89.423772, 321.481528)"><g><path d="M 12.34375 -8.90625 C 12.34375 -10.789062 12.195312 -12.132812 11.90625 -12.9375 C 11.53125 -13.945312 10.742188 -14.453125 9.546875 -14.453125 C 7.648438 -14.453125 6.703125 -12.617188 6.703125 -8.953125 C 6.703125 -6.953125 6.878906 -5.523438 7.234375 -4.671875 C 7.660156 -3.554688 8.414062 -3 9.5 -3 C 10.675781 -3 11.488281 -3.597656 11.9375 -4.796875 C 12.207031 -5.585938 12.34375 -6.957031 12.34375 -8.90625 Z M 17.40625 -8.90625 C 17.40625 -2.625 14.769531 0.515625 9.5 0.515625 C 6.46875 0.515625 4.378906 -0.414062 3.234375 -2.28125 C 2.242188 -3.90625 1.75 -6.710938 1.75 -10.703125 L 1.75 -16.609375 C 1.75 -20.421875 2.191406 -23.234375 3.078125 -25.046875 C 4.296875 -27.597656 6.597656 -28.875 9.984375 -28.875 C 14.585938 -28.875 16.914062 -26.726562 16.96875 -22.4375 L 11.9375 -22.4375 C 11.96875 -24.382812 11.195312 -25.359375 9.625 -25.359375 C 8.320312 -25.359375 7.457031 -24.238281 7.03125 -22 C 6.8125 -20.832031 6.691406 -18.71875 6.671875 -15.65625 C 7.921875 -17.144531 9.460938 -17.890625 11.296875 -17.890625 C 13.566406 -17.890625 15.179688 -17.101562 16.140625 -15.53125 C 16.984375 -14.125 17.40625 -11.914062 17.40625 -8.90625 Z M 17.40625 -8.90625 "/></g></g></g><g fill="#f2e6d6" fill-opacity="1"><g transform="translate(108.268722, 321.481528)"><g><path d="M 12.265625 -15.96875 C 12.265625 -17.726562 12.242188 -19.171875 12.203125 -20.296875 C 12.160156 -21.429688 12.085938 -22.253906 11.984375 -22.765625 C 11.609375 -24.492188 10.78125 -25.359375 9.5 -25.359375 C 8.195312 -25.359375 7.375 -24.476562 7.03125 -22.71875 C 6.789062 -21.632812 6.671875 -19.382812 6.671875 -15.96875 L 6.671875 -11.90625 C 6.671875 -8.707031 6.789062 -6.585938 7.03125 -5.546875 C 7.375 -3.847656 8.1875 -3 9.46875 -3 C 10.769531 -3 11.59375 -3.847656 11.9375 -5.546875 C 12.15625 -6.535156 12.265625 -8.613281 12.265625 -11.78125 Z M 17.25 -11.46875 C 17.25 -7.5 16.878906 -4.726562 16.140625 -3.15625 C 15.015625 -0.707031 12.773438 0.515625 9.421875 0.515625 C 6.046875 0.515625 3.820312 -0.65625 2.75 -3 C 2.007812 -4.507812 1.640625 -7.265625 1.640625 -11.265625 L 1.640625 -18.609375 C 1.640625 -21.910156 2.117188 -24.347656 3.078125 -25.921875 C 4.273438 -27.890625 6.441406 -28.875 9.578125 -28.875 C 12.640625 -28.875 14.757812 -27.957031 15.9375 -26.125 C 16.8125 -24.707031 17.25 -22.347656 17.25 -19.046875 Z M 17.25 -11.46875 "/></g></g></g><g fill="#f2e6d6" fill-opacity="1"><g transform="translate(127.113672, 321.481528)"><g><path d="M 9.21875 -21.5625 C 9.21875 -24.84375 8.515625 -26.484375 7.109375 -26.484375 C 5.640625 -26.484375 4.90625 -24.804688 4.90625 -21.453125 C 4.90625 -18.222656 5.625 -16.609375 7.0625 -16.609375 C 8.050781 -16.609375 8.707031 -17.234375 9.03125 -18.484375 C 9.082031 -18.785156 9.125 -19.1875 9.15625 -19.6875 C 9.195312 -20.195312 9.21875 -20.820312 9.21875 -21.5625 Z M 26.234375 -6.90625 C 26.234375 -10.1875 25.53125 -11.828125 24.125 -11.828125 C 22.632812 -11.828125 21.890625 -10.148438 21.890625 -6.796875 C 21.890625 -3.566406 22.617188 -1.953125 24.078125 -1.953125 C 25.066406 -1.953125 25.722656 -2.578125 26.046875 -3.828125 C 26.097656 -4.117188 26.140625 -4.519531 26.171875 -5.03125 C 26.210938 -5.539062 26.234375 -6.164062 26.234375 -6.90625 Z M 12.703125 -21.5625 C 12.703125 -19.332031 12.351562 -17.628906 11.65625 -16.453125 C 10.78125 -14.960938 9.25 -14.21875 7.0625 -14.21875 C 3.3125 -14.21875 1.4375 -16.640625 1.4375 -21.484375 C 1.4375 -26.410156 3.328125 -28.875 7.109375 -28.875 C 9.421875 -28.875 11.003906 -28.113281 11.859375 -26.59375 C 12.421875 -25.5625 12.703125 -23.882812 12.703125 -21.5625 Z M 10.9375 0.921875 L 8.5 0.921875 L 20.203125 -29.28125 L 22.71875 -29.28125 Z M 29.71875 -6.90625 C 29.71875 -4.664062 29.367188 -2.960938 28.671875 -1.796875 C 27.796875 -0.304688 26.265625 0.4375 24.078125 0.4375 C 20.328125 0.4375 18.453125 -1.972656 18.453125 -6.796875 C 18.453125 -11.742188 20.34375 -14.21875 24.125 -14.21875 C 26.4375 -14.21875 28.019531 -13.457031 28.875 -11.9375 C 29.4375 -10.90625 29.71875 -9.226562 29.71875 -6.90625 Z M 29.71875 -6.90625 "/></g></g></g><g fill="#452d1a" fill-opacity="1"><g transform="translate(189.803139, 316.825414)"><g><path d="M 8.171875 -10.84375 L 8.171875 -11.09375 C 8.171875 -12.769531 7.515625 -13.609375 6.203125 -13.609375 C 5.171875 -13.609375 4.503906 -13.113281 4.203125 -12.125 C 3.953125 -11.394531 3.828125 -10.097656 3.828125 -8.234375 C 3.828125 -5.671875 3.976562 -3.976562 4.28125 -3.15625 C 4.59375 -2.238281 5.242188 -1.78125 6.234375 -1.78125 C 6.972656 -1.78125 7.617188 -1.894531 8.171875 -2.125 L 8.171875 -6.046875 L 6.15625 -6.046875 L 6.15625 -8.140625 L 10.984375 -8.140625 L 10.984375 -0.421875 C 9.398438 0.0546875 7.835938 0.296875 6.296875 0.296875 C 3.929688 0.296875 2.394531 -0.441406 1.6875 -1.921875 C 1.195312 -2.898438 0.953125 -4.875 0.953125 -7.84375 C 0.953125 -10.5625 1.1875 -12.410156 1.65625 -13.390625 C 2.382812 -14.929688 3.898438 -15.703125 6.203125 -15.703125 C 7.828125 -15.703125 9.035156 -15.332031 9.828125 -14.59375 C 10.628906 -13.863281 11.03125 -12.691406 11.03125 -11.078125 L 11.03125 -10.84375 Z M 8.171875 -10.84375 "/></g></g></g><g fill="#452d1a" fill-opacity="1"><g transform="translate(201.746152, 316.825414)"><g><path d="M 6.515625 -8.5625 C 6.441406 -8.570312 6.363281 -8.582031 6.28125 -8.59375 C 6.207031 -8.601562 6.132812 -8.609375 6.0625 -8.609375 C 4.550781 -8.609375 3.796875 -7.738281 3.796875 -6 L 3.796875 0 L 1.15625 0 L 1.15625 -8.796875 C 1.15625 -9.253906 1.148438 -9.640625 1.140625 -9.953125 C 1.128906 -10.273438 1.117188 -10.535156 1.109375 -10.734375 L 3.640625 -10.734375 L 3.65625 -9.34375 C 4.195312 -10.394531 5.109375 -10.921875 6.390625 -10.921875 L 6.515625 -10.921875 Z M 6.515625 -8.5625 "/></g></g></g><g fill="#452d1a" fill-opacity="1"><g transform="translate(208.409539, 316.825414)"><g><path d="M 6.296875 -6.4375 C 6.296875 -7.34375 6.242188 -7.988281 6.140625 -8.375 C 5.929688 -8.96875 5.523438 -9.265625 4.921875 -9.265625 C 4.285156 -9.265625 3.851562 -8.914062 3.625 -8.21875 C 3.488281 -7.8125 3.421875 -7.203125 3.421875 -6.390625 L 3.421875 -4.265625 C 3.421875 -3.441406 3.476562 -2.84375 3.59375 -2.46875 C 3.789062 -1.800781 4.222656 -1.46875 4.890625 -1.46875 C 5.515625 -1.46875 5.929688 -1.78125 6.140625 -2.40625 C 6.242188 -2.75 6.296875 -3.320312 6.296875 -4.125 Z M 8.984375 -5.6875 C 8.984375 -3.625 8.769531 -2.191406 8.34375 -1.390625 C 7.757812 -0.296875 6.609375 0.25 4.890625 0.25 C 3.128906 0.25 1.960938 -0.273438 1.390625 -1.328125 C 0.972656 -2.078125 0.765625 -3.414062 0.765625 -5.34375 C 0.765625 -7.132812 1 -8.445312 1.46875 -9.28125 C 2.101562 -10.414062 3.269531 -10.984375 4.96875 -10.984375 C 6.65625 -10.984375 7.789062 -10.492188 8.375 -9.515625 C 8.78125 -8.804688 8.984375 -7.53125 8.984375 -5.6875 Z M 8.984375 -5.6875 "/></g></g></g><g fill="#452d1a" fill-opacity="1"><g transform="translate(218.159801, 316.825414)"><g><path d="M 8.203125 -3.109375 C 8.203125 -0.910156 6.890625 0.1875 4.265625 0.1875 C 1.847656 0.1875 0.617188 -0.828125 0.578125 -2.859375 L 0.578125 -3.421875 L 3.1875 -3.421875 L 3.1875 -3.09375 C 3.207031 -2.019531 3.609375 -1.484375 4.390625 -1.484375 C 5.179688 -1.484375 5.578125 -1.90625 5.578125 -2.75 C 5.578125 -3.21875 5.414062 -3.59375 5.09375 -3.875 C 4.988281 -3.945312 4.796875 -4.0625 4.515625 -4.21875 C 4.242188 -4.375 3.878906 -4.570312 3.421875 -4.8125 C 2.890625 -5.09375 2.445312 -5.335938 2.09375 -5.546875 C 1.75 -5.765625 1.5 -5.953125 1.34375 -6.109375 C 0.90625 -6.535156 0.6875 -7.144531 0.6875 -7.9375 C 0.6875 -8.96875 1.0625 -9.75 1.8125 -10.28125 C 2.46875 -10.75 3.351562 -10.984375 4.46875 -10.984375 C 5.75 -10.984375 6.671875 -10.71875 7.234375 -10.1875 C 7.804688 -9.664062 8.09375 -8.828125 8.09375 -7.671875 L 5.5 -7.671875 L 5.5 -8.21875 C 5.4375 -9.039062 5.054688 -9.453125 4.359375 -9.453125 C 3.648438 -9.453125 3.296875 -9.078125 3.296875 -8.328125 C 3.296875 -7.890625 3.488281 -7.535156 3.875 -7.265625 C 3.945312 -7.203125 4.117188 -7.097656 4.390625 -6.953125 C 4.671875 -6.804688 5.0625 -6.597656 5.5625 -6.328125 C 6.539062 -5.828125 7.1875 -5.421875 7.5 -5.109375 C 7.96875 -4.609375 8.203125 -3.941406 8.203125 -3.109375 Z M 8.203125 -3.109375 "/></g></g></g><g fill="#452d1a" fill-opacity="1"><g transform="translate(226.888201, 316.825414)"><g><path d="M 8.203125 -3.109375 C 8.203125 -0.910156 6.890625 0.1875 4.265625 0.1875 C 1.847656 0.1875 0.617188 -0.828125 0.578125 -2.859375 L 0.578125 -3.421875 L 3.1875 -3.421875 L 3.1875 -3.09375 C 3.207031 -2.019531 3.609375 -1.484375 4.390625 -1.484375 C 5.179688 -1.484375 5.578125 -1.90625 5.578125 -2.75 C 5.578125 -3.21875 5.414062 -3.59375 5.09375 -3.875 C 4.988281 -3.945312 4.796875 -4.0625 4.515625 -4.21875 C 4.242188 -4.375 3.878906 -4.570312 3.421875 -4.8125 C 2.890625 -5.09375 2.445312 -5.335938 2.09375 -5.546875 C 1.75 -5.765625 1.5 -5.953125 1.34375 -6.109375 C 0.90625 -6.535156 0.6875 -7.144531 0.6875 -7.9375 C 0.6875 -8.96875 1.0625 -9.75 1.8125 -10.28125 C 2.46875 -10.75 3.351562 -10.984375 4.46875 -10.984375 C 5.75 -10.984375 6.671875 -10.71875 7.234375 -10.1875 C 7.804688 -9.664062 8.09375 -8.828125 8.09375 -7.671875 L 5.5 -7.671875 L 5.5 -8.21875 C 5.4375 -9.039062 5.054688 -9.453125 4.359375 -9.453125 C 3.648438 -9.453125 3.296875 -9.078125 3.296875 -8.328125 C 3.296875 -7.890625 3.488281 -7.535156 3.875 -7.265625 C 3.945312 -7.203125 4.117188 -7.097656 4.390625 -6.953125 C 4.671875 -6.804688 5.0625 -6.597656 5.5625 -6.328125 C 6.539062 -5.828125 7.1875 -5.421875 7.5 -5.109375 C 7.96875 -4.609375 8.203125 -3.941406 8.203125 -3.109375 Z M 8.203125 -3.109375 "/></g></g></g><g fill="#452d1a" fill-opacity="1"><g transform="translate(235.616602, 316.825414)"><g/></g></g><g fill="#452d1a" fill-opacity="1"><g transform="translate(240.640754, 316.825414)"><g><path d="M 8 -10.984375 C 8 -11.878906 7.78125 -12.503906 7.34375 -12.859375 C 6.957031 -13.160156 6.304688 -13.3125 5.390625 -13.3125 L 4.359375 -13.3125 L 4.359375 -8.546875 L 5.296875 -8.546875 C 5.785156 -8.546875 6.195312 -8.582031 6.53125 -8.65625 C 6.875 -8.738281 7.15625 -8.867188 7.375 -9.046875 C 7.59375 -9.234375 7.75 -9.484375 7.84375 -9.796875 C 7.945312 -10.117188 8 -10.515625 8 -10.984375 Z M 10.859375 -11.015625 C 10.859375 -9.140625 10.375 -7.867188 9.40625 -7.203125 C 8.695312 -6.703125 7.457031 -6.453125 5.6875 -6.453125 L 4.359375 -6.453125 L 4.359375 0 L 1.515625 0 L 1.515625 -15.390625 L 6.09375 -15.390625 C 7.738281 -15.390625 8.9375 -15.078125 9.6875 -14.453125 C 10.46875 -13.804688 10.859375 -12.660156 10.859375 -11.015625 Z M 10.859375 -11.015625 "/></g></g></g><g fill="#452d1a" fill-opacity="1"><g transform="translate(251.987684, 316.825414)"><g><path d="M 6.515625 -8.5625 C 6.441406 -8.570312 6.363281 -8.582031 6.28125 -8.59375 C 6.207031 -8.601562 6.132812 -8.609375 6.0625 -8.609375 C 4.550781 -8.609375 3.796875 -7.738281 3.796875 -6 L 3.796875 0 L 1.15625 0 L 1.15625 -8.796875 C 1.15625 -9.253906 1.148438 -9.640625 1.140625 -9.953125 C 1.128906 -10.273438 1.117188 -10.535156 1.109375 -10.734375 L 3.640625 -10.734375 L 3.65625 -9.34375 C 4.195312 -10.394531 5.109375 -10.921875 6.390625 -10.921875 L 6.515625 -10.921875 Z M 6.515625 -8.5625 "/></g></g></g><g fill="#452d1a" fill-opacity="1"><g transform="translate(258.65107, 316.825414)"><g><path d="M 6.296875 -6.4375 C 6.296875 -7.34375 6.242188 -7.988281 6.140625 -8.375 C 5.929688 -8.96875 5.523438 -9.265625 4.921875 -9.265625 C 4.285156 -9.265625 3.851562 -8.914062 3.625 -8.21875 C 3.488281 -7.8125 3.421875 -7.203125 3.421875 -6.390625 L 3.421875 -4.265625 C 3.421875 -3.441406 3.476562 -2.84375 3.59375 -2.46875 C 3.789062 -1.800781 4.222656 -1.46875 4.890625 -1.46875 C 5.515625 -1.46875 5.929688 -1.78125 6.140625 -2.40625 C 6.242188 -2.75 6.296875 -3.320312 6.296875 -4.125 Z M 8.984375 -5.6875 C 8.984375 -3.625 8.769531 -2.191406 8.34375 -1.390625 C 7.757812 -0.296875 6.609375 0.25 4.890625 0.25 C 3.128906 0.25 1.960938 -0.273438 1.390625 -1.328125 C 0.972656 -2.078125 0.765625 -3.414062 0.765625 -5.34375 C 0.765625 -7.132812 1 -8.445312 1.46875 -9.28125 C 2.101562 -10.414062 3.269531 -10.984375 4.96875 -10.984375 C 6.65625 -10.984375 7.789062 -10.492188 8.375 -9.515625 C 8.78125 -8.804688 8.984375 -7.53125 8.984375 -5.6875 Z M 8.984375 -5.6875 "/></g></g></g><g fill="#452d1a" fill-opacity="1"><g transform="translate(268.401333, 316.825414)"><g><path d="M 5.828125 -13.671875 C 5.773438 -13.679688 5.691406 -13.6875 5.578125 -13.6875 C 4.992188 -13.6875 4.609375 -13.578125 4.421875 -13.359375 C 4.242188 -13.140625 4.15625 -12.710938 4.15625 -12.078125 L 4.15625 -10.734375 L 5.765625 -10.734375 L 5.765625 -9.015625 L 4.15625 -9.015625 L 4.15625 0 L 1.515625 0 L 1.515625 -9.015625 L 0.21875 -9.015625 L 0.21875 -10.734375 L 1.515625 -10.734375 L 1.515625 -12.421875 C 1.515625 -13.453125 1.695312 -14.207031 2.0625 -14.6875 C 2.5 -15.257812 3.28125 -15.546875 4.40625 -15.546875 C 4.84375 -15.546875 5.316406 -15.523438 5.828125 -15.484375 Z M 5.828125 -13.671875 "/></g></g></g><g fill="#452d1a" fill-opacity="1"><g transform="translate(274.277042, 316.825414)"><g><path d="M 1.171875 0 L 1.171875 -10.734375 L 3.8125 -10.734375 L 3.8125 0 Z M 1.171875 -12.953125 L 1.171875 -15.234375 L 3.8125 -15.234375 L 3.8125 -12.953125 Z M 1.171875 -12.953125 "/></g></g></g><g fill="#452d1a" fill-opacity="1"><g transform="translate(279.258615, 316.825414)"><g><path d="M 6.046875 0.015625 C 5.847656 0.046875 5.625 0.0703125 5.375 0.09375 C 5.125 0.113281 4.851562 0.125 4.5625 0.125 C 3.4375 0.125 2.65625 -0.078125 2.21875 -0.484375 C 1.789062 -0.890625 1.578125 -1.664062 1.578125 -2.8125 L 1.578125 -9.015625 L 0.15625 -9.015625 L 0.15625 -10.734375 L 1.578125 -10.734375 L 1.578125 -12.5625 L 4.21875 -13.65625 L 4.21875 -10.734375 L 5.90625 -10.734375 L 5.90625 -9.015625 L 4.21875 -9.015625 L 4.21875 -3.1875 C 4.21875 -2.632812 4.28125 -2.269531 4.40625 -2.09375 C 4.5625 -1.84375 4.867188 -1.71875 5.328125 -1.71875 C 5.460938 -1.738281 5.703125 -1.757812 6.046875 -1.78125 Z M 6.046875 0.015625 "/></g></g></g><g fill="#452d1a" fill-opacity="1"><g transform="translate(285.496235, 316.825414)"><g/></g></g><g fill="#452d1a" fill-opacity="1"><g transform="translate(290.520387, 316.825414)"><g><path d="M 13.390625 0 L 13.390625 -13.5 L 10.21875 0 L 7.234375 0 L 4.0625 -13.5 L 4.0625 0 L 1.53125 0 L 1.53125 -15.390625 L 6.203125 -15.390625 L 8.859375 -3.0625 L 11.484375 -15.390625 L 16.140625 -15.390625 L 16.140625 0 Z M 13.390625 0 "/></g></g></g><g fill="#452d1a" fill-opacity="1"><g transform="translate(308.190083, 316.825414)"><g><path d="M 5.796875 -5.171875 L 5.328125 -5.171875 C 3.929688 -5.171875 3.234375 -4.507812 3.234375 -3.1875 C 3.234375 -2.070312 3.609375 -1.515625 4.359375 -1.515625 C 5.296875 -1.515625 5.773438 -2.332031 5.796875 -3.96875 Z M 5.96875 0 L 5.921875 -1.21875 C 5.328125 -0.257812 4.429688 0.21875 3.234375 0.21875 C 1.472656 0.21875 0.59375 -0.851562 0.59375 -3 C 0.59375 -4.570312 1.101562 -5.628906 2.125 -6.171875 C 2.820312 -6.554688 4.046875 -6.75 5.796875 -6.75 L 5.796875 -7.3125 C 5.796875 -7.957031 5.753906 -8.398438 5.671875 -8.640625 C 5.515625 -9.109375 5.1875 -9.34375 4.6875 -9.34375 C 3.875 -9.34375 3.46875 -8.867188 3.46875 -7.921875 L 3.46875 -7.75 L 0.875 -7.75 L 0.875 -7.9375 C 0.875 -9.96875 2.1875 -10.984375 4.8125 -10.984375 C 6.113281 -10.984375 7.023438 -10.695312 7.546875 -10.125 C 8.078125 -9.5625 8.34375 -8.628906 8.34375 -7.328125 L 8.34375 -3.578125 C 8.34375 -2.828125 8.359375 -2.15625 8.390625 -1.5625 C 8.421875 -0.976562 8.460938 -0.457031 8.515625 0 Z M 5.96875 0 "/></g></g></g><g fill="#452d1a" fill-opacity="1"><g transform="translate(317.642303, 316.825414)"><g><path d="M 6.515625 -8.5625 C 6.441406 -8.570312 6.363281 -8.582031 6.28125 -8.59375 C 6.207031 -8.601562 6.132812 -8.609375 6.0625 -8.609375 C 4.550781 -8.609375 3.796875 -7.738281 3.796875 -6 L 3.796875 0 L 1.15625 0 L 1.15625 -8.796875 C 1.15625 -9.253906 1.148438 -9.640625 1.140625 -9.953125 C 1.128906 -10.273438 1.117188 -10.535156 1.109375 -10.734375 L 3.640625 -10.734375 L 3.65625 -9.34375 C 4.195312 -10.394531 5.109375 -10.921875 6.390625 -10.921875 L 6.515625 -10.921875 Z M 6.515625 -8.5625 "/></g></g></g><g fill="#452d1a" fill-opacity="1"><g transform="translate(324.30569, 316.825414)"><g><path d="M 6.34375 -5.21875 C 6.34375 -6.476562 6.273438 -7.382812 6.140625 -7.9375 C 5.890625 -8.820312 5.46875 -9.265625 4.875 -9.265625 C 4.25 -9.265625 3.84375 -8.894531 3.65625 -8.15625 C 3.519531 -7.644531 3.453125 -6.632812 3.453125 -5.125 C 3.453125 -2.875 3.925781 -1.75 4.875 -1.75 C 5.851562 -1.75 6.34375 -2.90625 6.34375 -5.21875 Z M 9.046875 -10.734375 C 9.035156 -10.492188 9.023438 -10.226562 9.015625 -9.9375 C 9.015625 -9.644531 9.015625 -9.335938 9.015625 -9.015625 L 9.015625 0.46875 C 9.015625 1.875 8.628906 2.859375 7.859375 3.421875 C 7.203125 3.910156 6.148438 4.15625 4.703125 4.15625 C 3.453125 4.15625 2.535156 3.925781 1.953125 3.46875 C 1.316406 2.988281 1 2.148438 1 0.953125 L 3.8125 0.953125 C 3.8125 2.066406 4.1875 2.625 4.9375 2.625 C 5.445312 2.625 5.8125 2.429688 6.03125 2.046875 C 6.207031 1.710938 6.296875 1.144531 6.296875 0.34375 L 6.296875 -1.34375 C 5.671875 -0.550781 4.863281 -0.15625 3.875 -0.15625 C 2.625 -0.15625 1.75 -0.695312 1.25 -1.78125 C 0.925781 -2.550781 0.765625 -3.660156 0.765625 -5.109375 C 0.765625 -7.015625 0.898438 -8.347656 1.171875 -9.109375 C 1.609375 -10.359375 2.488281 -10.984375 3.8125 -10.984375 C 5 -10.984375 5.859375 -10.488281 6.390625 -9.5 L 6.390625 -10.734375 Z M 9.046875 -10.734375 "/></g></g></g><g fill="#452d1a" fill-opacity="1"><g transform="translate(334.460442, 316.825414)"><g><path d="M 1.171875 0 L 1.171875 -10.734375 L 3.8125 -10.734375 L 3.8125 0 Z M 1.171875 -12.953125 L 1.171875 -15.234375 L 3.8125 -15.234375 L 3.8125 -12.953125 Z M 1.171875 -12.953125 "/></g></g></g><g fill="#452d1a" fill-opacity="1"><g transform="translate(339.442015, 316.825414)"><g><path d="M 6.515625 0 L 6.515625 -7.203125 C 6.515625 -7.910156 6.46875 -8.382812 6.375 -8.625 C 6.195312 -9.050781 5.835938 -9.265625 5.296875 -9.265625 C 4.828125 -9.265625 4.460938 -9.039062 4.203125 -8.59375 C 3.941406 -8.144531 3.8125 -7.613281 3.8125 -7 L 3.8125 0 L 1.171875 0 L 1.171875 -8.984375 C 1.171875 -9.359375 1.160156 -9.6875 1.140625 -9.96875 C 1.128906 -10.25 1.113281 -10.503906 1.09375 -10.734375 L 3.75 -10.734375 L 3.765625 -9.546875 C 4.429688 -10.503906 5.3125 -10.984375 6.40625 -10.984375 C 7.445312 -10.984375 8.171875 -10.707031 8.578125 -10.15625 C 8.960938 -9.65625 9.15625 -8.835938 9.15625 -7.703125 L 9.15625 0 Z M 6.515625 0 "/></g></g></g></svg>